<?xml version="1.0" standalone="no"?>
<!DOCTYPE svg PUBLIC "-//W3C//DTD SVG 20010904//EN"
 "http://www.w3.org/TR/2001/REC-SVG-20010904/DTD/svg10.dtd">
<svg version="1.0" xmlns="http://www.w3.org/2000/svg"
 width="588.000000pt" height="588.000000pt" viewBox="0 0 588.000000 588.000000"
 preserveAspectRatio="xMidYMid meet">
<metadata>
Created by potrace 1.14, written by Peter Selinger 2001-2017
</metadata>
<g transform="translate(0.000000,588.000000) scale(0.100000,-0.100000)"
fill="#000000" stroke="none">
<path d="M3803 5151 c-37 -14 -96 -54 -127 -87 -6 -6 -70 -74 -143 -151 -73
-76 -276 -284 -453 -462 l-321 -324 -31 29 c-26 25 -102 104 -133 138 -5 6
-30 34 -55 61 -25 28 -67 77 -95 109 -396 465 -533 580 -691 580 -129 0 -247
-78 -493 -325 -99 -99 -401 -412 -401 -415 0 -1 -17 -20 -38 -41 -123 -129
-244 -262 -339 -376 -58 -69 -134 -179 -170 -247 -45 -84 -58 -124 -68 -203
-2 -21 -7 -42 -10 -47 -3 -5 -2 -11 3 -14 4 -2 9 -21 10 -41 2 -19 7 -47 12
-61 6 -14 8 -30 4 -35 -3 -5 -1 -9 4 -9 5 0 17 -19 28 -42 31 -72 135 -220
229 -325 130 -146 475 -497 502 -512 13 -6 30 -26 39 -43 9 -17 29 -45 45 -62
16 -17 29 -34 29 -38 0 -12 122 -123 164 -150 114 -71 247 -81 385 -30 46 17
90 37 98 43 19 17 13 -10 -44 -181 -77 -231 -67 -318 48 -430 65 -64 141 -71
290 -27 85 25 173 38 196 30 9 -4 10 -10 3 -23 -5 -10 -6 -20 -1 -22 5 -2 -7
-50 -26 -108 -18 -58 -36 -114 -39 -125 -11 -44 -19 -153 -13 -166 4 -8 15
-33 24 -56 21 -51 79 -114 126 -139 49 -25 129 -21 214 11 121 47 189 66 220
63 26 -3 29 -7 26 -28 -1 -14 -6 -27 -10 -30 -3 -3 -7 -19 -8 -37 -2 -17 -8
-44 -15 -60 -6 -15 -12 -30 -13 -33 0 -3 -9 -30 -18 -61 -60 -200 -27 -314
114 -391 103 -58 203 -56 287 4 58 40 75 57 164 164 69 81 154 173 348 374 55
57 281 294 385 405 17 17 93 98 170 179 77 82 158 167 180 191 22 23 74 78
115 122 41 44 136 144 210 223 74 79 149 158 165 175 17 18 85 90 152 162 68
71 146 155 175 185 29 31 109 115 178 188 69 73 150 158 180 189 112 115 152
190 144 271 -5 40 -46 117 -88 163 -17 19 -60 68 -96 108 -36 40 -81 92 -101
114 -20 22 -49 55 -65 74 -16 18 -38 43 -49 55 -17 20 -104 117 -158 180 -10
12 -37 43 -60 70 -23 27 -47 54 -52 60 -6 6 -37 42 -70 81 -33 38 -72 83 -87
100 -37 42 -63 72 -111 129 -23 27 -46 54 -52 60 -5 6 -35 40 -65 76 -30 36
-57 67 -60 70 -3 3 -30 34 -60 70 -30 36 -59 70 -65 76 -5 6 -30 35 -55 65
-25 29 -88 103 -140 164 -52 62 -115 136 -140 166 -69 82 -144 156 -181 174
-45 24 -106 26 -156 6z"/>
</g>
</svg>
